<svg width="126" height="92" viewBox="0 0 126 92" fill="none" xmlns="http://www.w3.org/2000/svg">
<path d="M22.8055 46.9964L28.3102 47.4626C29.3331 47.5486 30.1695 48.2815 30.3911 49.2864L30.5049 49.8009C31.3238 53.5187 32.78 57.0384 34.8336 60.2633L35.1166 60.7094C35.6683 61.5756 35.5947 62.6861 34.9325 63.4727L34.0383 64.5339C38.4554 64.1561 43.031 63.8625 47.7338 63.6602C41.1457 59.0346 36.8266 51.376 36.8266 42.7219C36.8266 28.6295 48.2688 17.1642 62.3329 17.1642C76.397 17.1642 87.8388 28.6295 87.8388 42.7219C87.8388 51.3434 83.552 58.9759 77.0063 63.6068C81.643 63.789 86.1585 64.0601 90.5261 64.413L89.734 63.4727C89.0715 62.6861 88.9968 61.5756 89.5499 60.7087L89.833 60.2641C91.8865 57.0384 93.3424 53.518 94.161 49.8013L94.2751 49.2857C94.4963 48.2815 95.3324 47.5486 96.3556 47.4626L101.86 46.9964C103.07 46.894 104.018 45.8609 104.018 44.6438V40.7986C104.018 39.5616 103.09 38.5502 101.86 38.446L96.3556 37.9803C95.3324 37.8936 94.4963 37.161 94.2751 36.1568L94.161 35.6415C93.3424 31.9242 91.8865 28.4041 89.833 25.1789L89.5499 24.7345C88.9975 23.867 89.0715 22.7561 89.734 21.9701L93.2996 17.7381C94.0831 16.8081 94.0242 15.4059 93.1654 14.5455L90.4518 11.8269C89.5785 10.953 88.2094 10.8947 87.2652 11.6923L83.0417 15.266C82.2563 15.9304 81.1472 16.0039 80.2825 15.4501L79.839 15.1668C76.6262 13.1114 73.1133 11.652 69.3983 10.8291L68.8844 10.7151C67.8827 10.4924 67.1515 9.65457 67.065 8.63032L66.5998 3.11459C66.4956 1.88181 65.4859 0.952454 64.2513 0.952454H60.4141C59.2003 0.952454 58.1689 1.90221 58.0667 3.1142L57.6012 8.63032C57.5149 9.65457 56.7835 10.4924 55.7817 10.7151L55.2678 10.8291C51.5525 11.6517 48.0399 13.1114 44.8267 15.1664L44.3832 15.4504C43.5185 16.0045 42.4096 15.9298 41.6245 15.266L37.4 11.6923C36.456 10.8943 35.0867 10.9533 34.2141 11.8269L31.501 14.5455C30.642 15.4059 30.5831 16.8081 31.3666 17.7381L34.9325 21.9701C35.5947 22.7561 35.6683 23.867 35.1166 24.7341L34.8336 25.1789C32.78 28.4041 31.3238 31.9238 30.5051 35.6409L30.3908 36.1571C30.1695 37.161 29.3331 37.8936 28.3105 37.9803L22.8055 38.446C21.5956 38.5486 20.6477 39.582 20.6477 40.7986V44.6438C20.6477 45.8609 21.5956 46.894 22.8055 46.9964Z" fill="#F68914"/>
<path d="M37.7025 43.4045C37.7025 29.397 49.0348 18.0415 63.0142 18.0415C65.9475 18.0415 68.7612 18.5473 71.3812 19.4667C68.5758 18.3696 65.526 17.7611 62.3329 17.7611C48.5752 17.7611 37.4223 28.9365 37.4223 42.7219C37.4223 45.9214 38.03 48.9769 39.1248 51.7885C38.2069 49.1635 37.7025 46.3435 37.7025 43.4045Z" fill="#2B272D"/>
<path d="M83.1377 55.2047L65.7588 41.7517L48.3799 55.2047H50.7632L65.7588 43.5967L80.7547 55.2047H83.1377Z" fill="#2B272D"/>
<path d="M70.2929 27.4016C70.1397 27.5835 70.0572 27.8009 70.0409 28.0219C69.9845 28.0078 69.9267 27.9979 69.8659 27.9979H69.1952L69.2997 26.95L70.289 25.7768C70.6383 25.9013 71.0278 25.7366 71.1754 25.3907C71.249 25.2191 71.2474 25.0353 71.189 24.8721L72.098 25.2619L70.2929 27.4016ZM69.352 25.3801L69.8912 25.6111L69.3277 26.2795L69.352 25.3801ZM68.0475 27.9979H67.2728L67.3445 27.2659L67.8235 25.9966H68.1829L68.2171 27.0774L68.0475 27.9979ZM67.6472 30.159H66.7037L66.7169 29.4157H67.7197L67.6472 30.159ZM85.5628 37.9114C84.2059 31.3243 80.1202 25.726 74.547 22.3572L73.0531 24.129L72.0437 23.6964L73.6222 21.8241C73.4989 21.7573 73.372 21.6967 73.2471 21.6315L71.6482 23.527L69.8623 22.7614L70.7336 21.9144C70.7336 21.9144 70.9387 22.0861 71.1954 21.9144C71.4526 21.7432 71.5552 21.6229 71.5552 21.6229L72.1249 21.0839C71.8892 20.9762 71.6534 20.8691 71.4134 20.7693L70.9959 21.16C70.9959 21.16 70.7678 20.9999 70.4597 21.1257C70.4597 21.1257 70.8105 21.1168 70.8959 21.4773L69.6544 22.6725L69.5122 22.6116C69.5122 22.6079 69.4973 22.4178 69.3625 22.2864L70.3453 21.4298L70.2999 21.2984C70.2995 21.2974 70.2746 21.1989 70.3824 21.0911C70.5784 20.8945 70.6553 20.8253 70.6563 20.8247L70.8098 20.6873L70.7325 20.601C70.7529 20.5829 70.7835 20.5551 70.8109 20.5307C70.6675 20.4755 70.5251 20.4184 70.3808 20.366C70.3779 20.3687 70.3667 20.3789 70.3656 20.3799C70.297 20.4488 70.2735 20.5327 70.2808 20.6135C70.2355 20.6569 70.1736 20.7179 70.0917 20.7999C69.929 20.9633 69.8846 21.1455 69.8872 21.2833L68.8474 22.1902C68.4735 22.3075 68.5767 22.7835 68.5767 22.7835L68.5889 22.7814C68.5498 22.8302 68.5143 22.8829 68.4882 22.9435C68.415 23.1151 68.4163 23.2989 68.4752 23.4617L67.117 22.8799C66.7773 22.7343 66.3677 22.8529 66.1908 23.1781C65.988 23.551 66.1524 24.0086 66.5327 24.1716L66.8477 24.3064V24.8474L66.16 27.9978H65.8516C65.4942 27.9978 65.1732 28.2527 65.1256 28.6082C65.071 29.0131 65.3584 29.3586 65.7381 29.4065L65.838 30.1589H63.4185C60.5884 31.8055 61.6839 35.9219 62.4602 36.745C63.2361 37.5683 66.4311 41.0904 66.4311 41.0904H67.4875L67.1551 40.2029H68.1421L68.5633 41.0904H69.7054L69.3523 40.2029H70.2834L70.696 41.0904H71.5552L71.1396 40.2029H71.9964L72.6056 41.0904H73.9628L73.0106 38.817L73.4151 30.9364L72.5481 30.1589H71.5664L71.8044 28.9535C71.8116 28.9475 71.8195 28.9423 71.8268 28.936L76.33 25.1119L82.4687 31.4922C83.0939 32.1425 83.6174 32.8801 84.028 33.6787V38.0945H83.5717V45.3442L82.4417 47.3679L83.6625 53.1068C84.3322 51.7314 84.8727 50.2818 85.2696 48.7743H84.9868V45.2644L85.8538 43.7889V45.7371C85.9534 44.9541 86.0145 44.1595 86.0355 43.3544H84.9868V38.1861H84.7128V35.3766L85.5628 37.9114Z" fill="#2B272D"/>
<path d="M54.9226 63.4263V58.9907H59.6889V63.3512C60.6495 63.3426 61.6132 63.3367 62.5812 63.3354V57.4483H68.9364V63.3841C69.9047 63.3999 70.8694 63.4188 71.8287 63.4421V58.9907H76.5953V61.6974C77.4656 61.0389 78.2899 60.3233 79.0608 59.5537V54.6055L65.7588 44.3085L52.457 54.6055V63.4899C53.2754 63.4658 54.0973 63.4444 54.9226 63.4263ZM64.8738 53.6588C64.925 53.6722 64.9769 53.6845 65.0289 53.6955L65.136 53.4674L65.4767 53.5123L65.5277 53.7604C65.6438 53.7671 65.7601 53.7671 65.8763 53.7604L65.921 53.5128L66.2614 53.4667L66.3755 53.6943C66.4896 53.6719 66.6014 53.6409 66.7114 53.6034L66.6903 53.3507L67.007 53.221L67.1765 53.4101C67.2799 53.3569 67.3802 53.2979 67.4776 53.234L67.3931 52.9968L67.6632 52.787L67.8744 52.927C67.9611 52.8483 68.0433 52.7651 68.1216 52.678L67.9783 52.4711L68.1873 52.2005L68.4263 52.2811C68.489 52.1824 68.5471 52.0805 68.6014 51.977L68.4098 51.8148L68.5425 51.4977L68.7953 51.5126C68.8306 51.4015 68.8604 51.2888 68.8848 51.1748L68.6579 51.0681L68.7034 50.7248L68.9499 50.6742C68.9564 50.5582 68.9573 50.442 68.9503 50.3261L68.7019 50.2824L68.6584 49.942L68.8846 49.8269C68.8598 49.7123 68.8296 49.599 68.7923 49.4878L68.5414 49.5118L68.4154 49.1938L68.5992 49.0259C68.5456 48.921 68.4868 48.8196 68.4224 48.7213L68.1885 48.8085L67.9784 48.5329L68.1179 48.3224C68.0393 48.2362 67.9574 48.1531 67.8708 48.0748L67.6656 48.2192L67.3916 48.0104L67.4714 47.7697C67.3741 47.7066 67.2741 47.6479 67.1708 47.5952L67.0101 47.7862L66.6909 47.6554L66.7063 47.401C66.5956 47.3634 66.4829 47.3333 66.3685 47.3098L66.262 47.5387L65.923 47.4933L65.8724 47.2457C65.7555 47.2389 65.6385 47.2391 65.5218 47.2459L65.4781 47.4955L65.1364 47.5407L65.0237 47.3118C64.9095 47.336 64.7971 47.3667 64.6866 47.4039L64.7071 47.6537L64.3918 47.7869L64.2217 47.5971C64.1178 47.6498 64.0175 47.7089 63.9205 47.7734L64.0065 48.0086L63.7341 48.2207L63.5243 48.0798C63.4375 48.1582 63.3552 48.2409 63.277 48.3279L63.4209 48.5346L63.2111 48.8061L62.9708 48.7254C62.908 48.824 62.8495 48.9252 62.7969 49.0296L62.9884 49.1915L62.8569 49.5099L62.6037 49.4941C62.5674 49.6042 62.5377 49.7163 62.5135 49.8296L62.7416 49.938L62.6957 50.2788L62.4479 50.3307C62.4419 50.4472 62.4428 50.5637 62.4489 50.6802L62.6965 50.7242L62.7412 51.0657L62.5142 51.1795C62.5391 51.2935 62.5696 51.4058 62.6053 51.517L62.856 51.4942L62.989 51.8129L62.7969 51.982C62.8528 52.0847 62.9123 52.1852 62.9758 52.2834L63.2117 52.1993L63.4186 52.4715L63.2813 52.6831C63.3597 52.7693 63.442 52.8517 63.5283 52.9298L63.7339 52.786L64.0057 52.9976L63.9261 53.2367C64.024 53.3001 64.1248 53.358 64.2283 53.4114L64.3898 53.2199L64.7064 53.352L64.6922 53.6046C64.7522 53.6246 64.8128 53.6425 64.8738 53.6588Z" fill="#2B272D"/>
<path d="M41.2112 48.4012H42.209V50.0797H41.2112V48.4012ZM41.2112 41.0287H42.209V42.7067H41.2112V41.0287ZM41.2112 37.3422H42.209V39.0207H41.2112V37.3422ZM42.9573 52.0876H43.9552V53.7658H42.9573V52.0876ZM42.9573 44.715H43.9552V46.3932H42.9573V44.715ZM42.9573 37.3422H43.9552V39.0207H42.9573V37.3422ZM44.7034 52.0876H45.7013V53.7658H44.7034V52.0876ZM44.7034 48.4012H45.7013V50.0797H44.7034V48.4012ZM44.7034 41.0287H45.7013V42.7067H44.7034V41.0287ZM46.4496 44.715H47.4474V46.3932H46.4496V44.715ZM46.4496 41.0287H47.4474V42.7067H46.4496V41.0287ZM46.4496 37.3422H47.4474V39.0207H46.4496V37.3422ZM49.2571 44.5951H50.6376V46.2733H49.2571V44.5951ZM49.2571 40.7588H50.6376V42.4372H49.2571V40.7588ZM49.2571 33.0864H50.6376V34.765H49.2571V33.0864ZM49.2571 29.2505H50.6376V30.929H49.2571V29.2505ZM49.2571 25.4144H50.6376V27.0927H49.2571V25.4144ZM51.6729 48.4312H53.0538V50.1097H51.6729V48.4312ZM51.6729 44.5951H53.0538V46.2733H51.6729V44.5951ZM51.6729 36.9228H53.0538V38.6013H51.6729V36.9228ZM51.6729 33.0864H53.0538V34.765H51.6729V33.0864ZM54.0891 40.7588H55.47V42.4372H54.0891V40.7588ZM54.0891 33.0864H55.47V34.765H54.0891V33.0864ZM54.0891 29.2505H55.47V30.929H54.0891V29.2505ZM54.0891 25.4144H55.47V27.0927H54.0891V25.4144ZM56.5054 44.5951H57.8859V46.2733H56.5054V44.5951ZM56.5054 40.7588H57.8859V42.4372H56.5054V40.7588ZM56.5054 36.9228H57.8859V38.6013H56.5054V36.9228ZM56.5054 25.4144H57.8859V27.0927H56.5054V25.4144ZM49.2571 59.9398H50.6376V61.618H49.2571V59.9398ZM49.2571 56.1035H50.6376V57.782H49.2571V56.1035ZM41.2112 52.0876H42.209V53.7658H41.34C43.5083 57.8868 46.8504 61.2906 50.9164 63.5383C51.1321 63.531 51.3468 63.5228 51.5631 63.5159V55.7174L51.0683 56.1005H47.0749C46.6472 56.1005 46.4624 55.5579 46.8008 55.2961L54.0891 49.6537V48.4312H55.47V48.585L61.6306 43.816H58.8433V23.9158H48.0758V35.1846H39.9401V50.5438C40.2976 51.5678 40.7233 52.559 41.2112 53.5141V52.0876Z" fill="#2B272D"/>
<path d="M126.005 71.5929C109.937 67.5789 87.6501 65.0917 63.0142 65.0917C38.3782 65.0917 16.0912 67.5789 0.0228882 71.5929C16.0912 69.998 38.3782 69.0096 63.0142 69.0096C87.6501 69.0096 109.937 69.998 126.005 71.5929Z" fill="#2B272D"/>
<path fill-rule="evenodd" clip-rule="evenodd" d="M64.8738 53.6587C64.9251 53.6722 64.9768 53.6845 65.0289 53.6955L65.136 53.4675L65.4767 53.5124L65.5276 53.7604C65.6438 53.7672 65.76 53.7671 65.8763 53.7604L65.9209 53.5128L66.2614 53.4666L66.3755 53.6944C66.4896 53.6719 66.6013 53.6408 66.7114 53.6034L66.6903 53.3508L67.007 53.2211L67.1764 53.4102C67.28 53.3569 67.3801 53.2979 67.4776 53.234L67.3932 52.9968L67.6632 52.7871L67.8744 52.927C67.961 52.8483 68.0433 52.7652 68.1216 52.678L67.9784 52.4711L68.1873 52.2005L68.4264 52.2811C68.4891 52.1825 68.5471 52.0806 68.6014 51.977L68.4098 51.8148L68.5426 51.4978L68.7952 51.5126C68.8306 51.4016 68.8604 51.2889 68.8849 51.1749L68.6579 51.068L68.7034 50.7247L68.9499 50.6741C68.9564 50.5582 68.9573 50.442 68.9503 50.3261L68.7019 50.2823L68.6584 49.942L68.8846 49.8269C68.8599 49.7122 68.8297 49.599 68.7924 49.4878L68.5415 49.5119L68.4154 49.1938L68.5994 49.0258C68.5456 48.921 68.4868 48.8197 68.4225 48.7212L68.1885 48.8085L67.9784 48.5329L68.1179 48.3224C68.0393 48.2362 67.9574 48.1531 67.8709 48.0749L67.6658 48.2193L67.3916 48.0104L67.4714 47.7697C67.3742 47.7066 67.2741 47.648 67.1709 47.5953L67.0103 47.7861L66.6909 47.6554L66.7064 47.401C66.5956 47.3634 66.483 47.3333 66.3685 47.3097L66.262 47.5387L65.9231 47.4932L65.8725 47.2457C65.7556 47.2389 65.6385 47.2391 65.5219 47.2459L65.4782 47.4955L65.1364 47.5408L65.0237 47.3118C64.9095 47.336 64.7972 47.3666 64.6866 47.404L64.7072 47.6537L64.3919 47.787L64.2217 47.597C64.1179 47.6499 64.0175 47.7089 63.9205 47.7735L64.0065 48.0086L63.7342 48.2207L63.5243 48.0798C63.4376 48.1582 63.3554 48.241 63.2771 48.3279L63.421 48.5347L63.2111 48.8061L62.971 48.7254C62.9081 48.824 62.8497 48.9253 62.7969 49.0296L62.9884 49.1915L62.8569 49.5099L62.6038 49.4941C62.5675 49.6043 62.5378 49.7164 62.5136 49.8297L62.7416 49.938L62.6958 50.2788L62.448 50.3307C62.442 50.4472 62.4428 50.5637 62.4487 50.6802L62.6964 50.7242L62.7412 51.0657L62.5141 51.1794C62.539 51.2935 62.5694 51.4059 62.6052 51.517L62.8559 51.4941L62.9888 51.8129L62.7968 51.982C62.8527 52.0847 62.9123 52.1852 62.9757 52.2834L63.2116 52.1993L63.4184 52.4715L63.2812 52.6831C63.3597 52.7693 63.4419 52.8517 63.5282 52.9298L63.7339 52.786L64.0057 52.9976L63.9261 53.2368C64.0239 53.3001 64.1248 53.358 64.2282 53.4114L64.3898 53.2199L64.7062 53.3521L64.6922 53.6046C64.7522 53.6246 64.8128 53.6425 64.8738 53.6587Z" fill="white"/>
<path fill-rule="evenodd" clip-rule="evenodd" d="M65.7037 47.8492C67.1628 47.8492 68.346 49.0431 68.346 50.5051C68.346 51.9672 67.1628 53.1569 65.7037 53.1569C64.2446 53.1569 63.0531 51.9672 63.0531 50.5051C63.0531 49.0431 64.2446 47.8492 65.7037 47.8492Z" fill="#231F20"/>
<path fill-rule="evenodd" clip-rule="evenodd" d="M64.8291 52.5836V52.7272V52.8088V52.9128L64.8251 52.9114L64.7089 52.8655L64.5956 52.814L64.4852 52.7574L64.3779 52.6956L64.274 52.6289L64.1734 52.5574L64.0766 52.4813L63.9835 52.4006L63.8945 52.3157L63.8096 52.2266L63.7289 52.1336L63.6527 52.0368L63.5811 51.9363L63.5144 51.8322L63.4526 51.725L63.3959 51.6145L63.3445 51.5011L63.2985 51.3849L63.2581 51.2659L63.2236 51.1444L63.1949 51.0207L63.1723 50.8947L63.1559 50.7667L63.146 50.6367L63.1427 50.5051L63.146 50.3734L63.1559 50.2434L63.1723 50.1153L63.1949 49.9893L63.2236 49.8654L63.2581 49.7438L63.2985 49.6247L63.3445 49.5084L63.3959 49.3948L63.4526 49.2841L63.5145 49.1766L63.5812 49.0725L63.6527 48.9718L63.729 48.8748L63.8096 48.7816L63.8946 48.6923L63.9837 48.6072L64.0767 48.5264L64.1736 48.45L64.2741 48.3784L64.378 48.3115L64.4852 48.2495L64.5956 48.1927L64.709 48.1412L64.8251 48.0951L64.944 48.0546L65.0654 48.02L65.189 47.9912L65.3148 47.9686L65.4426 47.9522L65.5723 47.9423L65.7037 47.9389L65.8351 47.9423L65.9647 47.9522L66.0925 47.9686L66.2181 47.9912L66.3416 48.02L66.4626 48.0546L66.5812 48.0951L66.6971 48.1412L66.8101 48.1927L66.9202 48.2494L67.0271 48.3114L67.1307 48.3783L67.2307 48.45L67.3272 48.5263L67.4199 48.6071L67.5086 48.6922L67.5931 48.7814L67.6734 48.8746L67.7492 48.9717L67.8204 49.0723L67.8868 49.1765L67.9484 49.284L68.0047 49.3945L68.0559 49.5082L68.1016 49.6246L68.1417 49.7437L68.176 49.8652L68.2045 49.9891L68.2271 50.1152L68.2433 50.2434L68.2531 50.3734L68.2564 50.5051L68.2531 50.6368L68.2433 50.7667L68.2271 50.8948L68.2045 51.0208L68.176 51.1446L68.1417 51.266L68.1016 51.385L68.0559 51.5013L68.0048 51.6147L67.9484 51.7251L67.8869 51.8324L67.8205 51.9364L67.7493 52.0369L67.6734 52.1337L67.5932 52.2268L67.5086 52.3159L67.42 52.4007L67.3273 52.4813L67.2309 52.5575L67.1307 52.629L67.0271 52.6957L66.9203 52.7574L66.8102 52.8141L66.6972 52.8655L66.5948 52.906V52.8087V52.7272V52.5813L67.0522 52.3724C67.0743 52.3548 67.0815 52.3273 67.0669 52.2852L67.0522 52.2347V51.8859C67.0534 51.8433 67.0333 51.8216 66.9922 51.8212H66.812C66.7392 51.8212 66.7227 51.7781 66.7773 51.7102C66.8674 51.489 66.8066 51.2617 66.5948 51.0281C66.5525 51.01 66.5216 50.9745 66.5162 50.9009C66.5078 50.8105 66.4756 50.7425 66.4239 50.6928C66.4227 50.6205 66.4058 50.5238 66.3559 50.5143L66.3607 50.4866L66.3416 50.4512C66.3493 50.4124 66.3466 50.3773 66.3339 50.3462C66.4028 50.3047 66.4649 50.2522 66.521 50.1904C66.5153 50.2274 66.5174 50.2619 66.5249 50.2945C66.5336 50.3431 66.5522 50.385 66.5659 50.4302C66.6076 50.4976 66.602 50.5931 66.5793 50.6987C66.5715 50.7959 66.5889 50.8775 66.6365 50.9404C66.713 51.0315 66.8148 51.0869 66.9121 51.0597C66.8717 50.9389 66.8961 50.7802 66.9259 50.6478L66.9406 50.5534L66.9355 50.2753C66.9391 50.2295 66.9474 50.1834 66.9724 50.1361L67.0141 50.0081C67.415 48.4464 65.7121 47.7874 64.939 48.5953C65.0773 48.6269 65.199 48.6671 65.2756 48.7728C65.3193 48.833 65.2932 48.8708 65.2361 48.8527C65.2229 48.8485 65.1538 48.8309 65.084 48.8209C65.0542 48.8145 65.0188 48.8063 64.9894 48.8065L64.9766 48.8071L64.9647 48.8083L64.9537 48.8104L64.9438 48.8131L64.935 48.8169L64.9275 48.8217L64.9214 48.828L64.9174 48.8356L64.9158 48.8444L64.9167 48.854L64.92 48.8641L64.9251 48.8743C64.9291 48.8836 64.9328 48.893 64.9363 48.9025C64.9387 48.9096 64.941 48.9166 64.9433 48.9237C64.9454 48.9308 64.9473 48.9377 64.9492 48.9448C64.9508 48.9518 64.9524 48.9588 64.9539 48.9659C64.955 48.9728 64.9563 48.9798 64.9574 48.9868C64.9583 48.9938 64.959 49.0007 64.9597 49.0077C64.9601 49.0146 64.9606 49.0215 64.9606 49.0285C64.9607 49.0355 64.9606 49.0423 64.9604 49.0492C64.9599 49.0561 64.9595 49.063 64.9588 49.0699C64.9579 49.0785 64.9567 49.0868 64.9551 49.0952L64.9197 49.1298C64.9165 49.1338 64.9134 49.1379 64.9104 49.1421C64.9075 49.1463 64.9047 49.1506 64.9021 49.155C64.8996 49.1595 64.8973 49.164 64.8951 49.1688C64.893 49.1736 64.8911 49.1784 64.8893 49.1835L64.8863 49.1938L64.884 49.2046L64.8823 49.2158L64.8814 49.2276L64.8812 49.2398L64.8817 49.2526L64.8831 49.2659L64.8854 49.2797L64.8885 49.2942L64.8926 49.3095C64.8962 49.3178 64.8996 49.3258 64.9016 49.3346C64.9023 49.3382 64.9028 49.3416 64.9028 49.3453C64.9028 49.3493 64.9026 49.3531 64.9016 49.357C64.9005 49.3633 64.8985 49.3693 64.8961 49.3753L64.888 49.386L64.8803 49.3976L64.8737 49.4092L64.8682 49.4207L64.8636 49.4321L64.8598 49.4436L64.857 49.4549L64.8549 49.4662L64.8535 49.4774L64.8529 49.4885L64.8527 49.4996L64.8531 49.5105L64.8538 49.5214L64.855 49.5322L64.8581 49.5536C64.861 49.5711 64.8643 49.5884 64.8673 49.6059L64.8702 49.6265L64.8713 49.6367L64.872 49.6469L64.8722 49.6571L64.8721 49.6672L64.8714 49.6773L64.87 49.6874L64.8679 49.6975L64.8652 49.7076L64.8618 49.7175C64.855 49.7309 64.848 49.744 64.8407 49.7571C64.8323 49.7721 64.8234 49.787 64.8144 49.8017C64.804 49.8182 64.7934 49.8346 64.7826 49.8507C64.7612 49.8826 64.739 49.9139 64.7174 49.9456C64.7162 49.9485 64.715 49.9512 64.714 49.9542C64.7128 49.9577 64.7121 49.9613 64.7113 49.9649C64.7109 49.9685 64.7106 49.972 64.7104 49.9756C64.7105 49.9792 64.7106 49.9825 64.7111 49.986C64.7116 49.9894 64.7123 49.9926 64.7132 49.9958C64.7141 49.999 64.7153 50.002 64.7167 50.005C64.718 50.0079 64.7196 50.0106 64.7214 50.0133C64.7233 50.0159 64.7252 50.0182 64.7273 50.0205C64.7294 50.0226 64.7315 50.0244 64.7336 50.0262C64.7504 50.0408 64.7676 50.0549 64.7822 50.0715C64.7861 50.0763 64.7898 50.081 64.7932 50.0861L64.7948 50.0892L64.7962 50.0927L64.7971 50.0964L64.7978 50.1005L64.7987 50.1097V50.1198C64.7983 50.1354 64.7964 50.1508 64.7958 50.1663V50.1784L64.7961 50.1844L64.7968 50.1904L64.7977 50.1963L64.7989 50.2022L64.8005 50.2078L64.8026 50.2133L64.8052 50.2187L64.8084 50.2238L64.8122 50.2287L64.8166 50.2332L64.8216 50.2373L64.8273 50.2411L64.8297 50.2422C64.8258 50.2455 64.8222 50.2488 64.8188 50.2524L64.8136 50.2585L64.8094 50.2648L64.8061 50.2713L64.8037 50.2781L64.8023 50.2851L64.8019 50.2922L64.8023 50.2995L64.8037 50.3068L64.806 50.3143C64.8077 50.3182 64.8093 50.322 64.8111 50.3257C64.8132 50.3298 64.8155 50.3336 64.818 50.3375C64.8203 50.3409 64.8225 50.3442 64.8246 50.3476L64.8267 50.3525L64.8281 50.3586L64.8288 50.3658C64.829 50.37 64.8289 50.374 64.8287 50.3782C64.8285 50.3828 64.828 50.3872 64.8273 50.3918C64.826 50.4015 64.824 50.411 64.8218 50.4206L64.8194 50.43C64.8155 50.4442 64.8112 50.4582 64.806 50.4721C64.8049 50.4761 64.8037 50.48 64.8027 50.4841C64.802 50.4881 64.8013 50.492 64.8006 50.496C64.8004 50.4999 64.8002 50.5037 64.7999 50.5077C64.8001 50.5115 64.8004 50.5153 64.8006 50.5192C64.8013 50.5229 64.802 50.5265 64.8029 50.5303L64.8065 50.541C64.8081 50.5446 64.8097 50.5479 64.8116 50.5513C64.8137 50.5547 64.8157 50.5579 64.818 50.5611C64.8205 50.5643 64.823 50.5673 64.8258 50.5703C64.8287 50.5733 64.8318 50.5761 64.8349 50.5789L64.8418 50.5844L64.8563 50.5932L64.8712 50.6012L64.8866 50.6086L64.9028 50.6153L64.9194 50.6215L64.9366 50.6271C64.9455 50.6297 64.9544 50.6321 64.9635 50.6344C64.9729 50.6365 64.9822 50.6386 64.9917 50.6405C65.0015 50.6423 65.0112 50.6439 65.0211 50.6454C65.0313 50.6468 65.0416 50.6481 65.0518 50.6492C65.0625 50.6503 65.0731 50.651 65.0838 50.6519C65.101 50.6531 65.1265 50.6538 65.1437 50.6543C65.1504 50.6685 65.1567 50.6826 65.1626 50.6967C65.1752 50.7292 65.1863 50.7641 65.1961 50.8012C65.1965 50.8033 65.197 50.8051 65.1975 50.807C65.2102 50.8564 65.2204 50.9097 65.2284 50.9667C65.2343 51.0088 65.2237 51.0309 65.1966 51.033C65.0273 51.0906 64.8806 51.1596 64.7726 51.2478C64.5988 51.3858 64.5486 51.5446 64.6975 51.7367C64.7287 51.7892 64.7116 51.8175 64.6463 51.8163L64.4316 51.8127C64.3822 51.8127 64.3586 51.8364 64.361 51.8835L64.3698 52.1258C64.3685 52.1775 64.3633 52.2262 64.3477 52.2663C64.3259 52.3156 64.326 52.3554 64.3583 52.3812L64.828 52.5836L64.8291 52.5836Z" fill="#18151A"/>
<path fill-rule="evenodd" clip-rule="evenodd" d="M66.1125 50.1173C66.125 50.1838 66.1343 50.2523 66.1403 50.3227L66.066 50.3506C66.0524 50.2744 66.0354 50.2005 66.0153 50.1292C66.0253 50.1313 66.0356 50.1323 66.0463 50.1323C66.07 50.1323 66.0924 50.1269 66.1125 50.1173Z" fill="white"/>
<path fill-rule="evenodd" clip-rule="evenodd" d="M66.0462 49.8679C66.1062 49.8679 66.1552 49.917 66.1552 49.9772C66.1552 50.0373 66.1062 50.0864 66.0462 50.0864C65.9862 50.0864 65.9372 50.0373 65.9372 49.9772C65.9372 49.917 65.9862 49.8679 66.0462 49.8679Z" fill="white"/>
<path fill-rule="evenodd" clip-rule="evenodd" d="M66.299 50.5775C66.3282 50.4857 66.3138 50.4389 66.273 50.4223C66.2268 50.3983 66.1679 50.4669 66.2147 50.5058C66.2246 50.4831 66.2256 50.4825 66.2476 50.4735C66.2822 50.4869 66.2792 50.5422 66.2756 50.5724C66.0185 50.5879 65.9575 50.1442 65.9647 50.123C65.8465 50.3383 66.0167 50.6669 66.1828 50.7064C66.2062 50.5332 66.3791 50.5912 66.3451 50.6794C66.3308 50.7416 66.2642 50.7224 66.2594 50.6773C66.2436 50.6846 66.2418 50.6915 66.2413 50.7125C66.3719 50.9116 66.4506 50.591 66.299 50.5775Z" fill="white"/>
<path fill-rule="evenodd" clip-rule="evenodd" d="M65.9266 50.5662C65.8934 50.4288 65.8581 50.3087 65.7658 50.2614C65.7971 49.9575 65.4951 50.1929 65.7069 50.3037C65.7038 50.3408 65.6953 50.3929 65.7058 50.4432C65.7389 50.6022 65.6922 50.673 65.683 50.7117C65.6617 50.8011 65.6725 50.8788 65.6977 50.951C65.714 50.9228 65.7327 50.9142 65.7538 50.9253C65.7504 50.9426 65.7611 51.0069 65.7603 51.0068C65.7513 51.1081 65.8049 51.2599 65.9178 51.3092C65.9285 51.3131 65.9335 51.3239 65.9253 51.3391C65.8987 51.3758 65.8721 51.4089 65.8455 51.429C65.8048 51.4693 65.7837 51.513 65.782 51.5602C65.809 51.5547 65.8367 51.5312 65.8651 51.4898C65.9338 51.479 65.9837 51.4126 65.9582 51.3377C65.9239 51.2864 65.8933 51.2333 65.8701 51.1765C65.861 51.1417 65.8687 51.1226 65.8932 51.1195C65.9298 51.2141 65.9857 51.3049 66.0608 51.3919C66.0284 51.456 65.9853 51.5076 65.9337 51.5488C65.8481 51.6097 65.8107 51.679 65.7907 51.7514L65.7271 51.7756C65.7502 51.8217 65.8234 51.8241 65.9467 51.7827C65.9448 51.7352 65.9679 51.6895 66.016 51.6458C66.0567 51.6287 66.0841 51.5802 66.1055 51.5174L66.1142 51.5231L66.081 51.6087C66.0454 51.6439 66.0213 51.6791 66.0088 51.7143C65.931 51.8394 66.1838 51.8235 66.2341 51.7556C66.1502 51.6883 66.1162 51.5952 66.1431 51.5274C66.1735 51.4761 66.1807 51.4304 66.1647 51.3905C66.1197 51.3176 66.0746 51.2528 66.0296 51.1959C66.0716 51.2301 66.1409 51.2608 66.1481 51.3284C66.1617 51.3629 66.1842 51.3904 66.2197 51.4078C66.1406 51.4703 66.1942 51.7005 66.2923 51.7181C66.3022 51.6964 66.2928 51.6725 66.2638 51.6463C66.2859 51.636 66.308 51.6406 66.33 51.6601C66.3116 51.8437 66.5983 51.9303 66.5009 51.6518C66.5491 51.6745 66.5665 51.6473 66.5331 51.6177L66.4283 51.5441C66.3791 51.5181 66.3811 51.4558 66.4255 51.3636L66.4366 51.3617C66.4454 51.4694 66.4794 51.5348 66.5386 51.5578C66.523 51.4874 66.5892 51.473 66.6011 51.5413L66.591 51.6877C66.5835 51.8083 66.6685 51.8135 66.6636 51.6877L66.6553 51.5845C66.6835 51.5439 66.706 51.5177 66.716 51.5229L66.693 51.6085C66.6515 51.7235 66.7485 51.7195 66.761 51.5477C66.766 51.4203 66.7362 51.3167 66.6773 51.2328C66.6734 51.2572 66.6773 51.2858 66.6985 51.324C66.7267 51.4163 66.6369 51.4335 66.624 51.3368L66.6278 51.2696C66.6109 51.2344 66.6033 51.1984 66.6093 51.161C66.5806 51.1267 66.5675 51.0893 66.5616 51.0505C66.5644 51.0221 66.5398 50.9909 66.4948 50.967C66.4559 50.8746 66.4077 50.8458 66.3529 50.8608C66.3305 50.864 66.3274 50.8742 66.3438 50.8912C66.4404 50.9449 66.5141 51.0272 66.5468 51.161L66.5579 51.1942C66.5344 51.2069 66.5343 51.2293 66.545 51.2558C66.5324 51.2638 66.5185 51.2669 66.5038 51.268C66.4901 51.2496 66.4858 51.2297 66.4948 51.2074C66.5059 51.1269 66.4674 51.0878 66.4102 51.051L66.4037 51.0657C66.4121 51.0795 66.4129 51.089 66.4061 51.0942C66.4193 51.1078 66.4308 51.1234 66.4386 51.1435C66.4457 51.154 66.4438 51.1608 66.4379 51.1659C66.4478 51.1747 66.462 51.2178 66.4773 51.268C66.4772 51.268 66.4774 51.268 66.4773 51.268C66.4943 51.2797 66.5097 51.299 66.5221 51.3267C66.5279 51.3607 66.5524 51.3836 66.5856 51.4015C66.6105 51.4214 66.6239 51.4505 66.626 51.4888C66.545 51.4872 66.4805 51.3878 66.4238 51.277C66.4072 51.2481 66.3828 51.225 66.3411 51.2144C66.2875 51.1702 66.3289 51.0923 66.3916 51.1631C66.4192 51.0757 66.3423 51.0059 66.1941 50.9483C66.1987 50.967 66.2144 50.9838 66.2465 50.998L66.2428 51.0118C66.1629 50.9928 66.0961 50.962 66.0528 50.9111C65.9343 50.6983 66.2123 50.8178 66.2807 50.9491C66.3024 50.8432 66.1972 50.7444 66.0773 50.7175L65.9497 50.6067L65.9427 50.678L65.9101 50.6803C65.9501 50.7393 65.9713 50.7982 65.9589 50.8571C65.9517 50.8807 65.9434 50.8826 65.934 50.8626L65.9028 50.8184L65.9064 50.8746C65.8611 50.8702 65.8481 50.8127 65.8622 50.7397C65.8166 50.6625 65.8212 50.5886 65.8761 50.5183L65.9266 50.5662Z" fill="white"/>
<path fill-rule="evenodd" clip-rule="evenodd" d="M65.8113 51.0261C65.8821 51.0361 65.9429 51.0782 65.9936 51.1524C65.9803 51.1369 65.9671 51.1221 65.9539 51.1081C65.9305 51.0931 65.8956 51.0865 65.8514 51.0867L65.8113 51.0261Z" fill="white"/>
<path fill-rule="evenodd" clip-rule="evenodd" d="M65.0769 48.5537C65.9275 47.91 67.319 48.6684 66.9379 49.9937C66.9086 50.0856 66.8488 50.1404 66.8662 50.2731C66.9164 50.4676 66.7176 50.7544 66.8359 51.0114C66.6744 50.9784 66.6029 50.8122 66.6429 50.6678C66.6681 50.5549 66.6583 50.4734 66.6229 50.401C66.5929 50.2909 66.5331 50.2249 66.6021 50.1173C66.6366 50.1068 66.6844 50.0914 66.7174 50.1095C66.7175 50.1095 66.7176 50.1095 66.7176 50.1096L66.7348 50.119L66.7451 50.1002L66.728 50.0907C66.7278 50.0906 66.7278 50.0906 66.7277 50.0906C66.6946 50.0725 66.6824 50.0239 66.6726 49.9891C66.6731 49.988 66.6738 49.9868 66.6743 49.9857C66.7071 49.9709 66.7526 49.9492 66.7878 49.9629C66.7878 49.963 66.788 49.963 66.788 49.963L66.8063 49.9701L66.814 49.95L66.7958 49.9429C66.7957 49.9429 66.7956 49.9429 66.7956 49.9428C66.7605 49.9292 66.7422 49.8829 66.728 49.8498C66.7285 49.8486 66.7287 49.8472 66.7291 49.846C66.7597 49.827 66.802 49.7997 66.8385 49.8087C66.8386 49.8087 66.8387 49.8087 66.8388 49.8088L66.8578 49.8134L66.8629 49.7925L66.8439 49.7879C66.8437 49.7879 66.8437 49.7879 66.8436 49.7878C66.8068 49.7787 66.7825 49.7346 66.7642 49.7036C66.7643 49.7025 66.7644 49.7016 66.7646 49.7005C66.7922 49.6773 66.8303 49.6439 66.8679 49.6475C66.868 49.6475 66.8681 49.6475 66.8682 49.6475L66.8876 49.6494L66.8897 49.6279L66.8702 49.626C66.8701 49.626 66.8701 49.626 66.87 49.626C66.8323 49.6224 66.8018 49.5821 66.7792 49.5541C66.7792 49.5529 66.7792 49.552 66.7792 49.5508C66.8029 49.5237 66.8356 49.4847 66.8734 49.4825C66.8736 49.4825 66.8737 49.4824 66.8737 49.4825L66.8932 49.4813L66.892 49.4597L66.8725 49.4609C66.8724 49.4609 66.8723 49.4609 66.8723 49.461C66.8345 49.4631 66.7985 49.4282 66.7719 49.404C66.7716 49.4026 66.7714 49.4012 66.7712 49.3998C66.7906 49.3694 66.817 49.3261 66.8539 49.3184C66.854 49.3183 66.8541 49.3183 66.8541 49.3183L66.8733 49.3143L66.8688 49.2932L66.8497 49.2972C66.8495 49.2973 66.8495 49.2973 66.8495 49.2973C66.8122 49.3051 66.7711 49.2757 66.7411 49.2557C66.7409 49.2553 66.7409 49.2548 66.7406 49.2543C66.7551 49.2212 66.7745 49.174 66.8101 49.1604C66.8101 49.1604 66.8103 49.1603 66.8103 49.1603L66.8285 49.1533L66.8209 49.1332L66.8026 49.1402C66.8025 49.1402 66.8025 49.1403 66.8024 49.1403C66.7666 49.1539 66.721 49.1308 66.6883 49.1157C66.6881 49.1155 66.6881 49.1152 66.688 49.115C66.6971 49.08 66.7087 49.0299 66.7417 49.0108C66.7418 49.0107 66.7419 49.0107 66.7419 49.0106L66.7589 49.0008L66.7482 48.9821L66.7312 48.9919C66.7311 48.992 66.7311 48.992 66.7309 48.9921C66.6979 49.0112 66.6495 48.9958 66.6147 48.9862C66.6146 48.986 66.6145 48.9859 66.6145 48.9857C66.6181 48.9497 66.6219 48.8983 66.6517 48.8744C66.6518 48.8744 66.6518 48.8743 66.6519 48.8742L66.6671 48.8619L66.6537 48.8452L66.6385 48.8574C66.6384 48.8575 66.6383 48.8575 66.6383 48.8576C66.6083 48.8816 66.5578 48.8736 66.522 48.8694C66.5199 48.8334 66.5156 48.7822 66.5413 48.7539C66.5413 48.7538 66.5414 48.7537 66.5415 48.7537L66.5545 48.7391L66.5386 48.7247L66.5255 48.7392C66.5254 48.7392 66.5254 48.7393 66.5253 48.7394C66.4998 48.7676 66.4492 48.768 66.4133 48.7694C66.4128 48.7692 66.4123 48.7687 66.4119 48.7683C66.4045 48.7329 66.3927 48.6831 66.4137 48.6513C66.4138 48.6512 66.4138 48.6511 66.4138 48.6511L66.4247 48.6347L66.4068 48.6228L66.3959 48.6392C66.3959 48.6392 66.396 48.6391 66.3959 48.6392C66.3748 48.671 66.3245 48.679 66.2891 48.6859C66.2887 48.6857 66.288 48.6852 66.2873 48.6847C66.2746 48.6509 66.2554 48.6034 66.2715 48.5688C66.2715 48.5687 66.2716 48.5686 66.2717 48.5686L66.2798 48.5508L66.2604 48.5417L66.2521 48.5595C66.2521 48.5597 66.2521 48.5597 66.252 48.5598C66.236 48.5943 66.1877 48.6097 66.1537 48.6218C66.1532 48.6216 66.153 48.6216 66.1525 48.6214C66.1351 48.5897 66.1091 48.5453 66.1201 48.5087C66.1201 48.5085 66.1201 48.5084 66.1202 48.5082L66.1257 48.4894L66.1052 48.4833L66.0995 48.502C66.0995 48.5022 66.0995 48.5023 66.0995 48.5023C66.0885 48.539 66.0428 48.5612 66.0109 48.578C66.0104 48.578 66.01 48.5778 66.0098 48.5778C65.9881 48.5489 65.9562 48.5085 65.9619 48.4707C65.9619 48.4706 65.962 48.4705 65.962 48.4705L65.9649 48.4511L65.9437 48.4479L65.9407 48.4672C65.9407 48.4673 65.9407 48.4672 65.9407 48.4672C65.9349 48.5053 65.8922 48.534 65.863 48.5552C65.8628 48.5552 65.8627 48.5552 65.8625 48.5552C65.8372 48.5293 65.7999 48.4934 65.8007 48.455C65.8007 48.4549 65.8007 48.4548 65.8007 48.4548L65.8009 48.4352L65.7794 48.4347L65.7792 48.4543C65.7792 48.4544 65.7792 48.4545 65.7792 48.4546C65.7785 48.4928 65.7402 48.5265 65.7141 48.5515C65.6858 48.5289 65.6449 48.4979 65.6409 48.4599C65.6409 48.4598 65.6409 48.4597 65.6409 48.4597L65.6388 48.4401L65.6175 48.4424L65.6195 48.4619C65.6195 48.4621 65.6196 48.4622 65.6196 48.4622C65.6235 48.5003 65.5897 48.5385 65.5668 48.5664C65.5663 48.5665 65.5661 48.5665 65.5656 48.5666C65.535 48.5474 65.4905 48.5212 65.4822 48.4838C65.4822 48.4837 65.4822 48.4836 65.4822 48.4836L65.4778 48.4644L65.4569 48.4691L65.4611 48.4882C65.4612 48.4883 65.4612 48.4884 65.4612 48.4885C65.4694 48.5258 65.4404 48.5674 65.4208 48.5978C65.3884 48.5817 65.3418 48.5603 65.3298 48.524C65.3298 48.5239 65.3297 48.5238 65.3297 48.5238L65.3236 48.5051L65.3031 48.5119L65.3093 48.5305C65.3093 48.5306 65.3094 48.5307 65.3094 48.5308C65.3213 48.5669 65.2968 48.611 65.2804 48.6431L65.2758 48.6366C65.2494 48.6002 65.1645 48.5738 65.0767 48.5534" fill="white"/>
<path fill-rule="evenodd" clip-rule="evenodd" d="M65.3067 48.6919C65.342 48.76 65.3636 48.8311 65.3544 48.8545L65.458 48.825L65.559 48.8056L65.6569 48.796L65.7517 48.7955L65.843 48.8039L65.9305 48.8205L66.014 48.8447L66.0933 48.876L66.1679 48.9139L66.238 48.9578L66.3031 49.0071L66.3632 49.0613L66.4179 49.1198L66.4672 49.182L66.5109 49.2476L66.5487 49.3158L66.5806 49.3863L66.6062 49.4585L66.6254 49.5318L66.6381 49.6058L66.6438 49.68L66.6424 49.7538L66.6339 49.8268L66.6176 49.8982L66.616 49.9031C67.047 49.1849 66.2405 48.3378 65.3067 48.6919Z" fill="white"/>
<path fill-rule="evenodd" clip-rule="evenodd" d="M66.099 49.8271C66.1584 49.8502 66.2006 49.908 66.2006 49.9754C66.2006 50.0128 66.1876 50.0472 66.1659 50.0744L66.1664 50.0769L66.1806 50.1554L66.192 50.2357L66.1989 50.3015C67.0378 49.942 66.4314 48.5564 65.3619 48.9097L65.3999 48.9295L65.4495 48.9587L65.4983 48.9908L65.5465 49.0257L65.5937 49.0633L65.64 49.1038L65.6852 49.1468L65.7293 49.1925L65.772 49.2408L65.8134 49.2916L65.8534 49.3448L65.8917 49.4004L65.9285 49.4584L65.9634 49.5186L65.9965 49.5811L66.0274 49.6457L66.0565 49.7126L66.0832 49.7815L66.099 49.8271Z" fill="white"/>
<path fill-rule="evenodd" clip-rule="evenodd" d="M64.9886 48.8705C65.389 48.8764 65.8608 49.3047 66.0352 49.8208C65.9904 49.8276 65.9558 49.8456 65.9315 49.875C65.839 49.6739 65.7243 49.4952 65.5865 49.3519L65.5773 49.3805C65.586 49.4065 65.6135 49.4388 65.6527 49.4749C65.6781 49.4965 65.6989 49.5265 65.7198 49.5611C65.6956 49.5592 65.6769 49.5559 65.6636 49.5512L65.6662 49.5813C65.6375 49.5618 65.6123 49.5397 65.5918 49.5137C65.5915 49.5429 65.6077 49.5712 65.6414 49.5969C65.6818 49.626 65.7222 49.6509 65.7626 49.6744C65.7766 49.6857 65.787 49.6988 65.7938 49.7137C65.7473 49.7262 65.7524 49.7526 65.8025 49.7887C65.8062 49.7915 65.8111 49.7931 65.8154 49.796C65.7927 49.8038 65.7803 49.8585 65.7944 49.8876C65.8079 49.912 65.8221 49.9361 65.8306 49.9658L65.8485 49.9205L65.8853 49.9103L65.8971 49.937C65.8731 49.982 65.8976 50.0621 65.9218 50.0809C65.8773 50.1521 65.8711 50.2301 65.8682 50.2894C65.8174 50.2399 65.7885 50.1182 65.8056 50.0462C65.8056 50.0306 65.7962 50.0284 65.7771 50.0395C65.753 50.0386 65.7421 50.0202 65.7402 49.9897C65.7351 49.9712 65.7066 49.9857 65.7143 50.0034C65.7171 50.0085 65.7203 50.0134 65.724 50.018C65.7352 50.0303 65.745 50.0431 65.7501 50.0575L65.75 50.0861L65.7227 50.0862C65.7063 50.0621 65.6867 50.0313 65.6804 50.0303C65.6768 50.0256 65.6732 50.0203 65.668 50.0162C65.652 50.0038 65.6374 49.992 65.6266 49.9804C65.6162 49.9693 65.5999 49.9592 65.5893 49.9493L65.5844 49.9395C65.5929 49.8974 65.5724 49.8659 65.5416 49.8411C65.5362 49.8386 65.5318 49.8355 65.5284 49.8317L65.5185 49.8218C65.5419 49.7959 65.576 49.7897 65.6044 49.8138C65.6263 49.8344 65.6432 49.8697 65.6501 49.9127C65.6831 49.872 65.671 49.8324 65.6311 49.798C65.5954 49.7953 65.5653 49.79 65.5466 49.78C65.525 49.7631 65.54 49.7262 65.5739 49.7398C65.6195 49.7611 65.6018 49.7006 65.5583 49.7002C65.5445 49.6997 65.5281 49.7023 65.5089 49.7078C65.4757 49.7099 65.4466 49.706 65.4305 49.6829C65.4563 49.6642 65.4615 49.6459 65.4364 49.6281C65.3774 49.5859 65.4065 49.5353 65.4621 49.542L65.5065 49.5683C65.53 49.5821 65.5434 49.5606 65.5202 49.5402C65.5032 49.5265 65.481 49.5143 65.4578 49.5024L65.4305 49.4644C65.4065 49.4877 65.3817 49.499 65.3559 49.4959C65.3086 49.4874 65.3176 49.4432 65.3712 49.4465C65.39 49.4448 65.3857 49.4248 65.3691 49.4289C65.3413 49.4352 65.3315 49.4475 65.3153 49.4502C65.2874 49.4548 65.2655 49.4452 65.2531 49.4219C65.2439 49.3993 65.2397 49.3767 65.2403 49.354L65.2778 49.3336C65.2536 49.3162 65.2132 49.3146 65.16 49.3181L65.1142 49.3176C65.131 49.2787 65.1602 49.2524 65.2059 49.2522C65.1594 49.2331 65.1183 49.2338 65.0847 49.2631C65.0378 49.254 65.0014 49.2683 64.9754 49.306L64.9545 49.3055C64.9165 49.1975 64.9511 49.1426 65.0402 49.128C65.0254 49.1732 65.0361 49.1936 65.084 49.1776L65.1505 49.1629C65.1602 49.1657 65.1701 49.1737 65.1801 49.1872C65.193 49.1976 65.2121 49.2044 65.2377 49.2074L65.3408 49.2199L65.3625 49.2525L65.3818 49.2653L65.4087 49.2636C65.4108 49.3106 65.4406 49.3328 65.4891 49.3398C65.4737 49.3961 65.498 49.4255 65.5468 49.4366L65.532 49.3797L65.5349 49.3033C65.3714 49.1515 65.1918 49.0772 65.0136 49.0651C65.0142 48.9913 65.0064 48.9258 64.9886 48.8705Z" fill="white"/>
<path fill-rule="evenodd" clip-rule="evenodd" d="M65.6941 50.1249C65.6927 50.1248 65.6913 50.1247 65.6898 50.1247C65.688 50.1254 65.6865 50.1261 65.6846 50.1268L65.6772 50.1275C65.6736 50.1194 65.6698 50.1113 65.6662 50.1031H65.6639L65.6593 50.0956C65.6562 50.091 65.6527 50.0867 65.6497 50.0819L65.6464 50.0771H65.6441L65.6384 50.0691L65.6265 50.0579C65.6217 50.0543 65.617 50.0504 65.6122 50.0469C65.6074 50.044 65.603 50.0406 65.5981 50.0377C65.5904 50.0333 65.5829 50.0288 65.5761 50.0229C65.5615 50.0106 65.5466 49.9987 65.5324 49.986L65.5205 49.9741C65.5166 49.9694 65.5127 49.9648 65.5087 49.9601L65.5062 49.9582L65.5016 49.9536C65.4997 49.9511 65.498 49.9487 65.4963 49.946C65.4928 49.94 65.4892 49.9339 65.4859 49.9277C65.4829 49.9217 65.4802 49.9156 65.4774 49.9094L65.4723 49.8933L65.4673 49.8635C65.464 49.845 65.4626 49.8264 65.4597 49.8079C65.4594 49.8059 65.4592 49.8039 65.4587 49.8019C65.454 49.7917 65.4492 49.7814 65.4444 49.7711C65.4416 49.7671 65.4388 49.7631 65.4357 49.7592L65.4272 49.7476L65.4263 49.7459H65.4238L65.4114 49.7299L65.389 49.7033L65.3853 49.6984L65.3811 49.6884C65.3753 49.6736 65.3707 49.6582 65.3666 49.6428C65.3621 49.6255 65.3585 49.6079 65.3543 49.5905C65.3529 49.5869 65.3522 49.5833 65.3515 49.5796L65.3435 49.5649C65.3396 49.5585 65.3351 49.5524 65.3311 49.5461C65.3256 49.5393 65.3199 49.5327 65.3145 49.5259L65.3131 49.5238L65.3103 49.5204L65.3018 49.5132C65.2957 49.5092 65.2895 49.5053 65.2832 49.5015C65.2681 49.4929 65.2528 49.4846 65.237 49.4772C65.2325 49.4749 65.2278 49.4723 65.2234 49.4697C65.2113 49.4626 65.1992 49.4555 65.1875 49.4477C65.1843 49.4452 65.1809 49.4429 65.1778 49.4402L65.1759 49.4386L65.1741 49.4361C65.1685 49.4318 65.1629 49.4275 65.1576 49.4229C65.1534 49.4198 65.1494 49.4167 65.1449 49.4139L65.1406 49.4116L65.1385 49.4072L65.1353 49.4035L65.1309 49.3997L65.1256 49.3957L65.1197 49.3918C65.1136 49.3886 65.1076 49.3854 65.1014 49.3823C65.0938 49.3788 65.0859 49.3758 65.0781 49.3727C65.0732 49.3708 65.0683 49.3691 65.0632 49.3674C65.0592 49.3663 65.055 49.3651 65.0508 49.3639C65.0437 49.3627 65.0365 49.3618 65.0293 49.3612L65.0097 49.3605L64.998 49.3612L64.9866 49.3626L64.9768 49.3653L64.9674 49.3686L64.9588 49.3726L64.9502 49.3778L64.9423 49.3838L64.935 49.3912L64.9275 49.3993C64.9229 49.4059 64.918 49.4124 64.9138 49.4194C64.9103 49.4254 64.9071 49.4315 64.9039 49.4377L64.8999 49.4444L64.8897 49.4756C64.8893 49.4843 64.8886 49.4932 64.8888 49.502C64.8889 49.5058 64.8891 49.5096 64.8891 49.5133L64.894 49.5522C64.8974 49.574 64.9016 49.5955 64.9048 49.6172C64.9067 49.6303 64.9089 49.6434 64.9093 49.6566C64.9095 49.6613 64.9098 49.6659 64.9098 49.6706L64.9081 49.6704C64.9058 49.7133 64.8881 49.7533 64.869 49.7912L64.7575 49.9602C64.7495 49.9726 64.7464 49.9776 64.7546 49.9924C64.7646 50.0085 64.789 50.0226 64.8018 50.0364C64.8071 50.0423 64.8123 50.0482 64.8171 50.0545L64.82 50.0586C64.8225 50.0626 64.8248 50.0667 64.827 50.071C64.8356 50.0901 64.8383 50.1178 64.8388 50.138C64.831 50.1894 64.8024 50.2232 64.9734 50.2347C64.992 50.2376 64.9879 50.2727 64.9727 50.2727C64.9375 50.2715 64.8841 50.2636 64.8542 50.2759L64.8513 50.2771L64.8488 50.2787L64.8465 50.2806L64.8444 50.2826L64.8428 50.285L64.8416 50.2873L64.8407 50.2898L64.8402 50.2922L64.84 50.2947L64.8402 50.2973L64.8407 50.2998L64.8418 50.3024C64.8437 50.3058 64.846 50.309 64.8481 50.3123C64.8542 50.3217 64.8613 50.3341 64.8658 50.3444C64.8674 50.3536 64.8686 50.3626 64.8694 50.3711C64.8693 50.3774 64.869 50.3835 64.8683 50.3896L64.8667 50.4051C64.8655 50.4125 64.864 50.4198 64.8624 50.4271C64.8586 50.4422 64.8541 50.4571 64.85 50.4721L64.8473 50.4833C64.8464 50.4885 64.8455 50.4936 64.845 50.4989L64.8451 50.5084L64.8456 50.5129L64.8465 50.5173L64.8479 50.5217L64.8497 50.526L64.852 50.5302L64.8549 50.5345L64.8584 50.5388L64.8626 50.5431L64.8675 50.5475L64.8733 50.552L64.8798 50.5564L64.8873 50.5609L64.8954 50.5653C64.9068 50.5699 64.9182 50.574 64.9298 50.5777C64.9416 50.5814 64.9534 50.5845 64.9655 50.5873C65.1093 50.625 65.252 50.6083 65.3894 50.5516C65.4084 50.5435 65.4271 50.5346 65.4455 50.5253L65.478 50.5053C65.4805 50.5048 65.4828 50.5042 65.4853 50.5035L65.4855 50.5011C65.4876 50.4991 65.4896 50.4973 65.4918 50.4954C65.4955 50.4926 65.4993 50.4899 65.503 50.4872C65.5077 50.4838 65.5124 50.4803 65.5169 50.4767C65.5181 50.4758 65.5192 50.4749 65.52 50.4736L65.5214 50.4707L65.5276 50.4663C65.5382 50.4577 65.5465 50.4469 65.5545 50.436C65.5583 50.4308 65.5617 50.4256 65.5647 50.4201C65.5704 50.4113 65.576 50.4025 65.5813 50.3936L65.5851 50.3871L65.5934 50.3846L65.5987 50.3839C65.6023 50.3837 65.6058 50.3834 65.6092 50.3834L65.6136 50.3839L65.615 50.3715C65.6155 50.3637 65.6152 50.3562 65.6148 50.3484C65.6141 50.3376 65.6125 50.3268 65.6111 50.3159C65.6111 50.2974 65.6107 50.2787 65.6116 50.2601C65.6118 50.2562 65.6118 50.2524 65.6121 50.2485C65.6125 50.2426 65.613 50.2365 65.6142 50.2306C65.6148 50.2269 65.6158 50.2233 65.6165 50.2197C65.6179 50.215 65.6192 50.2103 65.6209 50.2058C65.6223 50.2025 65.6238 50.1992 65.6251 50.196L65.6307 50.1873L65.6365 50.179C65.6406 50.1754 65.6444 50.1716 65.6488 50.1682L65.6513 50.1665L65.6729 50.1544L65.6655 50.1768L65.6941 50.1249Z" fill="white"/>
<path fill-rule="evenodd" clip-rule="evenodd" d="M65.0332 49.8119C65.0311 49.8121 65.0287 49.8124 65.0265 49.8126C65.0258 49.8133 65.0258 49.814 65.0258 49.8147C64.9774 49.7844 64.9942 49.7601 64.9881 49.7124C64.9841 49.6996 64.974 49.6908 64.9679 49.6827C64.9552 49.649 64.9565 49.6329 64.9686 49.6012C64.9686 49.5716 64.9162 49.5824 64.9249 49.5521C64.9653 49.5117 65.0519 49.5231 65.1043 49.5373C65.1171 49.544 65.1299 49.5508 65.1426 49.5568C65.185 49.5911 65.2152 49.6228 65.2361 49.6787C65.2354 49.6841 65.2354 49.6841 65.234 49.6868C65.2313 49.6868 65.2293 49.6868 65.2273 49.6868C65.1936 49.6713 65.1661 49.6437 65.1386 49.6268C65.111 49.6174 65.1091 49.6211 65.1131 49.6487C65.1292 49.6858 65.1971 49.7092 65.1971 49.7577C65.1944 49.7584 65.1816 49.7635 65.1789 49.7649C65.1209 49.7603 65.0858 49.8048 65.0332 49.8119Z" fill="white"/>
<path fill-rule="evenodd" clip-rule="evenodd" d="M64.8733 50.0294C64.8476 50.0167 64.8303 50.0049 64.8284 49.9891C64.8398 49.9531 64.9539 50.0424 64.8733 50.0294Z" fill="white"/>
<path fill-rule="evenodd" clip-rule="evenodd" d="M65.2076 51.1482C65.2076 51.1403 65.2181 51.139 65.2242 51.1403C65.2255 51.1432 65.235 51.1879 65.2515 51.18C65.3322 51.0285 65.2221 50.8116 65.1835 50.6516C65.3504 50.6345 65.4814 50.5734 65.6066 50.454C65.6253 50.4677 65.6303 50.4814 65.6311 50.5096C65.6188 50.5847 65.5958 50.6568 65.5958 50.7376C65.6029 50.8648 65.7534 51.041 65.7363 51.1267L65.7363 51.1272C65.7362 51.1272 65.7362 51.1274 65.7362 51.1274C65.5626 51.6987 64.529 51.6272 65.2076 51.1482Z" fill="white"/>
<path fill-rule="evenodd" clip-rule="evenodd" d="M65.1657 51.1268C64.7901 51.1955 64.4135 51.5981 64.9681 51.782C65.2595 51.8544 65.531 51.8157 65.7777 51.6954C65.7908 51.6506 65.8092 51.6064 65.8379 51.5694C65.8331 51.5721 65.8282 51.5742 65.8232 51.5764L65.7605 51.6003C65.7634 51.5767 65.766 51.5529 65.7694 51.5293C65.7703 51.5237 65.7712 51.5182 65.7721 51.5126C65.7773 51.4876 65.7872 51.464 65.7965 51.4403L65.8017 51.4393L65.8132 51.4221L65.8164 51.4131C65.8333 51.3988 65.8502 51.3844 65.8653 51.3681L65.8713 51.3604L65.8739 51.3522L65.8807 51.3467L65.8568 51.3332L65.8444 51.3231L65.8127 51.2763C65.6724 51.5158 65.4164 51.6288 65.1657 51.628C64.7566 51.6195 64.806 51.2872 65.1657 51.1268Z" fill="white"/>
<path fill-rule="evenodd" clip-rule="evenodd" d="M64.6711 52.2456C64.6012 52.2423 64.5306 52.2423 64.4621 52.2415C64.4577 52.1235 64.4607 52.0095 64.4614 51.8947C64.6515 51.8947 64.8407 51.8954 65.0307 51.8963C65.0351 51.8954 65.0387 51.8947 65.0431 51.8939C65.1916 51.8971 65.3467 51.8994 65.4981 51.8994C65.5535 51.8914 65.611 51.8939 65.6692 51.9027C65.729 51.9018 65.7893 51.9011 65.849 51.9011C65.8811 51.9043 65.9168 51.8939 65.9524 51.8995C66.0536 51.8979 66.0871 51.8963 66.1687 51.8963C66.1774 51.897 66.1861 51.8987 66.1971 51.8963C66.3186 51.897 66.4446 51.9019 66.5691 51.8923C66.5778 51.8971 66.6469 51.8914 66.6586 51.8907C66.8414 51.8907 66.8414 51.8907 66.9506 51.8931C66.9506 52.0064 66.9499 52.1204 66.9499 52.2344C66.6616 52.24 66.3725 52.2392 66.0879 52.2327C65.8505 52.24 65.6139 52.2424 65.3802 52.2392C65.3686 52.2385 65.3569 52.2376 65.3452 52.2376C64.9638 52.244 64.9638 52.244 64.6711 52.2456Z" fill="white"/>
<path fill-rule="evenodd" clip-rule="evenodd" d="M64.4881 52.3289H66.928L66.5629 52.478H64.8519L64.4881 52.3289Z" fill="white"/>
<path fill-rule="evenodd" clip-rule="evenodd" d="M66.5051 52.8088V52.801V52.5672H64.9194C64.9194 52.6838 64.9194 52.8004 64.9194 52.917C64.9672 52.9361 65.019 52.9583 65.0681 52.972C65.0681 52.9037 65.0681 52.8356 65.0681 52.7673C65.0681 52.7257 65.0994 52.6915 65.1376 52.6915C65.1759 52.6915 65.2072 52.7257 65.2072 52.7673C65.2072 52.8481 65.2072 52.9289 65.2072 53.0097C65.2509 53.0184 65.2945 53.0279 65.3381 53.0337C65.3381 52.9498 65.3381 52.8659 65.3381 52.782C65.3381 52.7323 65.3755 52.6915 65.4212 52.6915C65.4668 52.6915 65.5042 52.7323 65.5042 52.782C65.5042 52.8722 65.5042 52.9624 65.5042 53.0527C65.5404 53.0553 65.5766 53.0572 65.6127 53.0584C65.6127 52.9662 65.6127 52.8741 65.6127 52.782C65.6127 52.7323 65.6563 52.6915 65.7097 52.6915C65.763 52.6915 65.8066 52.7323 65.8066 52.782C65.8066 52.8735 65.8066 52.9649 65.8066 53.0563C65.8437 53.0549 65.8808 53.0519 65.9179 53.049C65.9179 52.96 65.9179 52.871 65.9179 52.782C65.9179 52.7323 65.9552 52.6915 66.001 52.6915C66.0466 52.6915 66.0839 52.7323 66.0839 52.782C66.0839 52.8638 66.0839 52.9456 66.0839 53.0274C66.1267 53.0206 66.1695 53.012 66.2122 53.0027C66.2122 52.9242 66.2122 52.8459 66.2122 52.7673C66.2122 52.7257 66.2435 52.6915 66.2817 52.6915C66.3199 52.6915 66.3512 52.7257 66.3512 52.7673C66.3512 52.8336 66.3512 52.8997 66.3512 52.966C66.4025 52.9495 66.4538 52.9309 66.5051 52.9113V52.8088Z" fill="white"/>
<path d="M4.82785 82.7518V74.2719H7.24238C8.18538 74.2719 8.84416 74.3155 9.21512 74.4024C9.58595 74.4893 9.90744 74.6357 10.1777 74.8392C10.4815 75.0705 10.7163 75.367 10.88 75.7247C11.0438 76.0846 11.1246 76.4798 11.1246 76.9128C11.1246 77.569 10.9629 78.1027 10.6413 78.5139C10.3178 78.9249 9.84828 79.1977 9.23084 79.3322L11.5389 82.7518H8.93495L6.99385 79.431V82.7518H4.82785ZM6.99385 78.2806H7.41995C7.91706 78.2806 8.28003 78.1956 8.50885 78.0256C8.73765 77.8556 8.85209 77.5888 8.85209 77.2271C8.85209 76.802 8.74558 76.4997 8.53256 76.3198C8.31751 76.1398 7.96051 76.0509 7.45547 76.0509H6.99385V78.2806ZM21.1043 78.5297C21.1043 79.1404 20.992 79.7117 20.769 80.2433C20.5461 80.777 20.2205 81.2535 19.7925 81.6745C19.3605 82.0915 18.8673 82.4118 18.313 82.6391C17.7587 82.8645 17.1827 82.9771 16.5869 82.9771C15.9813 82.9771 15.4013 82.8645 14.8491 82.6391C14.2966 82.4118 13.8114 82.0915 13.3912 81.6745C12.9553 81.2535 12.6258 80.7751 12.399 80.2375C12.1741 79.7018 12.0616 79.1325 12.0616 78.5297C12.0616 77.9229 12.1741 77.3535 12.399 76.8179C12.6258 76.2842 12.9553 75.8058 13.3912 75.3848C13.8114 74.9678 14.2966 74.6475 14.8491 74.4202C15.4013 74.1948 15.9813 74.0822 16.5869 74.0822C17.1866 74.0822 17.7666 74.1948 18.3228 74.4202C18.8792 74.6475 19.3684 74.9678 19.7925 75.3848C20.2167 75.8019 20.5401 76.2782 20.7671 76.8158C20.992 77.3516 21.1043 77.9229 21.1043 78.5297ZM16.583 81.0202C17.2221 81.0202 17.7509 80.785 18.169 80.3145C18.5872 79.8422 18.7963 79.2472 18.7963 78.5297C18.7963 77.82 18.5852 77.2271 18.1611 76.7507C17.737 76.2763 17.2103 76.0391 16.583 76.0391C15.9438 76.0391 15.4152 76.2763 14.997 76.7487C14.5788 77.2211 14.3696 77.8161 14.3696 78.5297C14.3696 79.255 14.5748 79.852 14.9871 80.3186C15.3994 80.7869 15.932 81.0202 16.583 81.0202ZM22.5484 82.7518V74.2719H24.3119C25.6257 74.2719 26.5549 74.3332 27.0993 74.4578C27.6458 74.5803 28.1231 74.7878 28.5354 75.0765C29.0719 75.452 29.4784 75.9324 29.7545 76.5154C30.0326 77.1005 30.1707 77.7687 30.1707 78.5178C30.1707 79.2669 30.0326 79.9331 29.7545 80.5182C29.4784 81.1032 29.0719 81.5835 28.5354 81.9591C28.127 82.2437 27.6615 82.4473 27.1368 82.57C26.6141 82.6905 25.8013 82.7518 24.7005 82.7518H24.3119H22.5484ZM24.8327 80.8542H25.2194C26.1248 80.8542 26.7876 80.6683 27.2038 80.2948C27.6202 79.9232 27.8272 79.3322 27.8272 78.5198C27.8272 77.7094 27.6202 77.1164 27.2038 76.7369C26.7876 76.3593 26.1248 76.1695 25.2194 76.1695H24.8327V80.8542ZM31.6167 82.7518V74.2719H34.0312C34.9742 74.2719 35.633 74.3155 36.0039 74.4024C36.3748 74.4893 36.6963 74.6357 36.9666 74.8392C37.2704 75.0705 37.5052 75.367 37.6688 75.7247C37.8326 76.0846 37.9135 76.4798 37.9135 76.9128C37.9135 77.569 37.7517 78.1027 37.4302 78.5139C37.1066 78.9249 36.6372 79.1977 36.0197 79.3322L38.3277 82.7518H35.7238L33.7827 79.431V82.7518H31.6167ZM33.7827 78.2806H34.2088C34.7059 78.2806 35.0689 78.1956 35.2977 78.0256C35.5265 77.8556 35.641 77.5888 35.641 77.2271C35.641 76.802 35.5345 76.4997 35.3214 76.3198C35.1064 76.1398 34.7493 76.0509 34.2443 76.0509H33.7827V78.2806ZM39.2648 82.7518V74.2719H41.5964V82.7518H39.2648ZM47.477 79.6326V77.8536H52.0102C52.0141 77.911 52.0181 77.9762 52.0201 78.0453C52.0219 78.1145 52.0219 78.2153 52.0219 78.3517C52.0219 79.8105 51.6373 80.9411 50.8679 81.7456C50.1005 82.5501 49.0175 82.9534 47.6228 82.9534C46.9383 82.9534 46.3268 82.8506 45.7942 82.6431C45.2596 82.4374 44.7842 82.1213 44.364 81.6963C43.9635 81.291 43.6519 80.8127 43.4289 80.2572C43.208 79.7038 43.0975 79.1246 43.0975 78.5178C43.0975 77.8853 43.206 77.3021 43.421 76.7724C43.6361 76.2407 43.9597 75.7643 44.3857 75.3393C44.8098 74.9262 45.2971 74.6139 45.8455 74.4005C46.3959 74.1889 46.9877 74.0822 47.6228 74.0822C48.4513 74.0822 49.1852 74.2463 49.8223 74.5743C50.4596 74.9025 50.9961 75.3907 51.432 76.0391L49.4318 76.9997C49.1931 76.6716 48.9228 76.4285 48.625 76.2684C48.3252 76.1083 47.9918 76.0272 47.6208 76.0272C46.9305 76.0272 46.386 76.2585 45.9894 76.719C45.593 77.1816 45.3937 77.8101 45.3937 78.6107C45.3937 79.4171 45.593 80.0517 45.9894 80.5141C46.386 80.9787 46.9305 81.21 47.6208 81.21C48.2068 81.21 48.696 81.0657 49.0866 80.7791C49.4791 80.4924 49.708 80.1109 49.7731 79.6326H47.477ZM62.1162 78.5297C62.1162 79.1404 62.0038 79.7117 61.7809 80.2433C61.558 80.777 61.2324 81.2535 60.8043 81.6745C60.3724 82.0915 59.8792 82.4118 59.3248 82.6391C58.7705 82.8645 58.1946 82.9771 57.5987 82.9771C56.9931 82.9771 56.4132 82.8645 55.8609 82.6391C55.3085 82.4118 54.8232 82.0915 54.403 81.6745C53.9671 81.2535 53.6377 80.7751 53.4109 80.2375C53.186 79.7018 53.0735 79.1325 53.0735 78.5297C53.0735 77.9229 53.186 77.3535 53.4109 76.8179C53.6377 76.2842 53.9671 75.8058 54.403 75.3848C54.8232 74.9678 55.3085 74.6475 55.8609 74.4202C56.4132 74.1948 56.9931 74.0822 57.5987 74.0822C58.1985 74.0822 58.7785 74.1948 59.3347 74.4202C59.891 74.6475 60.3802 74.9678 60.8043 75.3848C61.2285 75.8019 61.552 76.2782 61.7789 76.8158C62.0038 77.3516 62.1162 77.9229 62.1162 78.5297ZM57.5948 81.0202C58.234 81.0202 58.7627 80.785 59.1809 80.3145C59.599 79.8422 59.8082 79.2472 59.8082 78.5297C59.8082 77.82 59.5971 77.2271 59.1729 76.7507C58.7489 76.2763 58.2221 76.0391 57.5948 76.0391C56.9557 76.0391 56.427 76.2763 56.0088 76.7487C55.5906 77.2211 55.3815 77.8161 55.3815 78.5297C55.3815 79.255 55.5866 79.852 55.9989 80.3186C56.4112 80.7869 56.9439 81.0202 57.5948 81.0202ZM76.9704 82.7518H74.8143L74.3192 79.0851C74.2837 78.8262 74.252 78.5395 74.2225 78.2213C74.1949 77.905 74.1673 77.5591 74.1455 77.1856C74.0904 77.5453 73.9858 77.9921 73.828 78.5297C73.7925 78.6403 73.7668 78.7233 73.751 78.7787L72.6029 82.7518H71.0642L69.9161 78.7787C69.9004 78.7233 69.8767 78.6403 69.8451 78.5297C69.6833 77.9921 69.5788 77.5472 69.5275 77.1915C69.5058 77.5117 69.4782 77.8299 69.4466 78.1441C69.4171 78.4585 69.3796 78.7727 69.3381 79.0851L68.841 82.7518H66.6968L68.0026 74.2719H70.285L71.5614 78.6443C71.5693 78.6759 71.585 78.7253 71.6087 78.7964C71.7271 79.1858 71.802 79.5199 71.8336 79.7986C71.8493 79.6464 71.877 79.4804 71.9203 79.2966C71.9619 79.1127 72.021 78.8913 72.094 78.6325L73.3821 74.2719H75.6704L76.9704 82.7518ZM80.4502 79.5852H82.7445L81.8824 76.7862C81.8568 76.7013 81.8193 76.5648 81.7739 76.3751C81.7265 76.1853 81.6674 75.9422 81.5944 75.6457C81.5451 75.8533 81.4958 76.0529 81.4464 76.2426C81.3991 76.4305 81.3497 76.6123 81.3004 76.7862L80.4502 79.5852ZM77.217 82.7518L80.1385 74.2719H83.0285L85.952 82.7518H83.6578L83.2297 81.2337H79.9531L79.5132 82.7518H77.217ZM86.7588 82.7518V74.2719H89.1734C90.1163 74.2719 90.7752 74.3155 91.1461 74.4024C91.5169 74.4893 91.8384 74.6357 92.1087 74.8392C92.4125 75.0705 92.6473 75.367 92.8109 75.7247C92.9747 76.0846 93.0556 76.4798 93.0556 76.9128C93.0556 77.569 92.8938 78.1027 92.5722 78.5139C92.2488 78.9249 91.7792 79.1977 91.1618 79.3322L93.4698 82.7518H90.8659L88.9248 79.431V82.7518H86.7588ZM88.9248 78.2806H89.3509C89.848 78.2806 90.211 78.1956 90.4398 78.0256C90.6686 77.8556 90.783 77.5888 90.783 77.2271C90.783 76.802 90.6765 76.4997 90.4635 76.3198C90.2485 76.1398 89.8914 76.0509 89.3864 76.0509H88.9248V78.2806ZM99.9067 79.3698L100.347 79.9548C100.469 79.7611 100.564 79.5496 100.629 79.3203C100.694 79.091 100.727 78.8459 100.727 78.587C100.727 77.8418 100.518 77.229 100.1 76.7487C99.6818 76.2684 99.1531 76.0272 98.5139 76.0272C97.8867 76.0272 97.36 76.2664 96.9358 76.7447C96.5117 77.2251 96.3006 77.82 96.3006 78.5297C96.3006 79.255 96.5097 79.856 96.9299 80.3323C97.3501 80.8068 97.8827 81.044 98.5258 81.044C98.6146 81.044 98.7053 81.0341 98.8 81.0123C98.8946 80.9905 98.9953 80.959 99.1038 80.9154L97.9064 79.3698H99.9067ZM103.215 83.746H101.248L100.347 82.56C100.104 82.6905 99.8317 82.7893 99.5319 82.8546C99.232 82.9197 98.9045 82.9534 98.5495 82.9534C98.0681 82.9534 97.6065 82.8901 97.1666 82.7617C96.7248 82.6351 96.3144 82.4454 95.9337 82.1944C95.3281 81.7891 94.8547 81.2613 94.5095 80.611C94.1643 79.9608 93.9926 79.263 93.9926 78.5178C93.9926 77.9149 94.107 77.3457 94.3339 76.81C94.5607 76.2724 94.8902 75.7939 95.3221 75.3729C95.7463 74.9559 96.2315 74.6377 96.778 74.4143C97.3245 74.1929 97.9045 74.0822 98.5178 74.0822C99.1255 74.0822 99.7035 74.1929 100.25 74.4143C100.796 74.6377 101.284 74.9559 101.712 75.3729C102.14 75.7939 102.467 76.2724 102.694 76.81C102.921 77.3457 103.035 77.9168 103.035 78.5178C103.035 79.1522 102.919 79.7374 102.688 80.279C102.457 80.8186 102.118 81.293 101.67 81.6982L103.215 83.746ZM104.432 74.2719H106.728V78.3972C106.728 79.0021 106.744 79.439 106.774 79.7018C106.805 79.9667 106.856 80.1881 106.931 80.366C107.018 80.5814 107.174 80.7474 107.393 80.8621C107.612 80.9747 107.88 81.0321 108.196 81.0321C108.511 81.0321 108.778 80.9747 108.997 80.8621C109.214 80.7474 109.37 80.5814 109.46 80.366C109.535 80.1881 109.587 79.9667 109.618 79.7018C109.648 79.439 109.663 79.0021 109.663 78.3972V77.818V74.2719H111.96V78.755C111.96 79.6859 111.904 80.3718 111.792 80.8147C111.68 81.2554 111.492 81.633 111.226 81.9473C110.938 82.2892 110.541 82.5482 110.036 82.7201C109.531 82.8921 108.92 82.9771 108.2 82.9771C107.474 82.9771 106.862 82.8921 106.359 82.7201C105.856 82.5482 105.458 82.2892 105.166 81.9473C104.903 81.633 104.716 81.2554 104.602 80.8147C104.489 80.3718 104.432 79.6859 104.432 78.755V77.8754V74.2719ZM113.709 82.7518V74.2719H118.894V76.1339H115.958V77.6046H118.726V79.4191H115.958V80.8542H118.894V82.7518H113.709ZM120.795 80.0122C121.139 80.4016 121.476 80.6921 121.809 80.8858C122.143 81.0776 122.474 81.1744 122.805 81.1744C123.113 81.1744 123.368 81.0914 123.565 80.9254C123.764 80.7593 123.863 80.5497 123.863 80.2948C123.863 80.0141 123.778 79.7967 123.606 79.6445C123.435 79.4922 123.048 79.3342 122.444 79.1721C121.616 78.9486 121.028 78.6562 120.685 78.2983C120.342 77.9386 120.17 77.4465 120.17 76.8218C120.17 76.0093 120.44 75.3492 120.983 74.8373C121.523 74.3252 122.227 74.0703 123.09 74.0703C123.557 74.0703 123.999 74.1336 124.417 74.2582C124.835 74.3846 125.232 74.5743 125.607 74.8293L124.883 76.4897C124.62 76.2664 124.352 76.0984 124.076 75.9837C123.802 75.8711 123.529 75.8138 123.259 75.8138C122.983 75.8138 122.758 75.881 122.585 76.0134C122.411 76.1458 122.324 76.3177 122.324 76.5253C122.324 76.7369 122.399 76.9068 122.551 77.0353C122.703 77.1619 122.997 77.2843 123.431 77.399L123.535 77.4286C124.476 77.6837 125.096 77.9623 125.392 78.2687C125.593 78.4763 125.745 78.7274 125.849 79.0179C125.954 79.3104 126.005 79.6326 126.005 79.9884C126.005 80.8878 125.711 81.6113 125.121 82.1568C124.532 82.7043 123.744 82.9771 122.762 82.9771C122.172 82.9771 121.636 82.8763 121.15 82.6767C120.667 82.475 120.202 82.1607 119.756 81.7318L120.795 80.0122Z" fill="#18151A"/>
<path d="M33.6282 90.442V86.3215H36.1473V87.2263H34.7209V87.9409H36.0658V88.8227H34.7209V89.5199H36.1473V90.442H33.6282ZM37.4397 90.442V86.3215H38.521L40.0757 88.4403C40.1054 88.4836 40.1543 88.5709 40.2223 88.7016C40.2914 88.8312 40.3662 88.9869 40.4486 89.1674C40.4265 88.9965 40.4103 88.8446 40.3997 88.7112C40.3892 88.5777 40.3844 88.4596 40.3844 88.3568V86.3215H41.4599V90.442H40.3844L38.8305 88.3145C38.7979 88.2713 38.7481 88.1839 38.68 88.0542C38.611 87.9236 38.5373 87.7699 38.4567 87.5932C38.4787 87.7661 38.495 87.9188 38.5056 88.0523C38.5162 88.1858 38.521 88.304 38.521 88.4067V90.442H37.4397ZM44.8468 88.9264V88.0619H47.0496C47.0514 88.0897 47.0534 88.1215 47.0543 88.1551C47.0555 88.1887 47.0555 88.2376 47.0555 88.304C47.0555 89.0127 46.8685 89.5622 46.4947 89.9531C46.1218 90.344 45.5955 90.54 44.9178 90.54C44.5852 90.54 44.288 90.49 44.0293 90.3891C43.7694 90.2893 43.5385 90.1356 43.3343 89.9291C43.1397 89.7322 42.9882 89.4998 42.88 89.2299C42.7726 88.9609 42.7189 88.6794 42.7189 88.3846C42.7189 88.0773 42.7715 87.7939 42.8762 87.5365C42.9806 87.2782 43.1377 87.0466 43.3448 86.8402C43.5509 86.6394 43.7877 86.4876 44.0541 86.3839C44.3216 86.2811 44.6092 86.2293 44.9178 86.2293C45.3204 86.2293 45.677 86.3089 45.9866 86.4685C46.2963 86.6279 46.5569 86.8651 46.7688 87.1802L45.7968 87.647C45.6808 87.4875 45.5495 87.3694 45.4048 87.2916C45.2591 87.2138 45.0971 87.1744 44.9169 87.1744C44.5814 87.1744 44.3168 87.2868 44.1242 87.5106C43.9315 87.7353 43.8347 88.0408 43.8347 88.4298C43.8347 88.8217 43.9315 89.13 44.1242 89.3547C44.3168 89.5804 44.5814 89.6928 44.9169 89.6928C45.2016 89.6928 45.4394 89.6228 45.6291 89.4834C45.8199 89.3442 45.9311 89.1588 45.9626 88.9264H44.8468ZM48.2902 90.442V86.3215H50.8093V87.2263H49.383V87.9409H50.7279V88.8227H49.383V89.5199H50.8093V90.442H48.2902ZM52.1017 90.442V86.3215H53.183L54.7378 88.4403C54.7675 88.4836 54.8163 88.5709 54.8844 88.7016C54.9534 88.8312 55.0282 88.9869 55.1106 89.1674C55.0886 88.9965 55.0723 88.8446 55.0617 88.7112C55.0512 88.5777 55.0464 88.4596 55.0464 88.3568V86.3215H56.1219V90.442H55.0464L53.4926 88.3145C53.4599 88.2713 53.4102 88.1839 53.3421 88.0542C53.2731 87.9236 53.1993 87.7699 53.1188 87.5932C53.1408 87.7661 53.157 87.9188 53.1676 88.0523C53.1782 88.1858 53.183 88.304 53.183 88.4067V90.442H52.1017ZM57.5533 90.442V86.3215H58.6749V87.9236H60.1702V86.3215H61.2917V90.442H60.1702V88.765H58.6749V90.442H57.5533ZM62.7165 90.442V86.3215H65.2356V87.2263H63.8092V87.9409H65.1541V88.8227H63.8092V89.5199H65.2356V90.442H62.7165ZM66.5568 90.442V86.3215H67.6898V90.442H66.5568ZM69.1432 90.442V86.3215H70.3164C70.7747 86.3215 71.0948 86.3426 71.275 86.3849C71.4552 86.4271 71.6115 86.4982 71.7428 86.5972C71.8904 86.7095 72.0045 86.8536 72.0841 87.0275C72.1636 87.2023 72.2029 87.3944 72.2029 87.6047C72.2029 87.9236 72.1242 88.1829 71.9681 88.3827C71.8109 88.5826 71.5827 88.7151 71.2827 88.7803L72.4042 90.442H71.1389L70.1956 88.8284V90.442H69.1432ZM70.1956 88.2694H70.4027C70.6443 88.2694 70.8206 88.2281 70.9319 88.1455C71.0431 88.0628 71.0986 87.9332 71.0986 87.7574C71.0986 87.5509 71.0469 87.4039 70.9434 87.3166C70.8389 87.2292 70.6654 87.1859 70.42 87.1859H70.1956V88.2694ZM77.6038 88.3904C77.6038 88.6872 77.5491 88.9648 77.4408 89.2232C77.3325 89.4825 77.1743 89.714 76.9663 89.9185C76.7563 90.1212 76.5167 90.2768 76.2474 90.3873C75.9781 90.4967 75.6981 90.5515 75.4086 90.5515C75.1144 90.5515 74.8326 90.4967 74.5642 90.3873C74.2958 90.2768 74.06 90.1212 73.8558 89.9185C73.644 89.714 73.4839 89.4815 73.3737 89.2203C73.2644 88.96 73.2097 88.6834 73.2097 88.3904C73.2097 88.0955 73.2644 87.8189 73.3737 87.5585C73.4839 87.2992 73.644 87.0668 73.8558 86.8623C74.06 86.6595 74.2958 86.504 74.5642 86.3935C74.8326 86.284 75.1144 86.2293 75.4086 86.2293C75.7001 86.2293 75.9819 86.284 76.2522 86.3935C76.5225 86.504 76.7603 86.6595 76.9663 86.8623C77.1724 87.065 77.3296 87.2965 77.4398 87.5576C77.5491 87.8179 77.6038 88.0955 77.6038 88.3904ZM75.4068 89.6006C75.7173 89.6006 75.9742 89.4863 76.1774 89.2577C76.3807 89.0282 76.4823 88.739 76.4823 88.3904C76.4823 88.0456 76.3796 87.7574 76.1736 87.526C75.9675 87.2954 75.7115 87.1802 75.4068 87.1802C75.0961 87.1802 74.8393 87.2954 74.636 87.5249C74.4328 87.7546 74.3313 88.0437 74.3313 88.3904C74.3313 88.7429 74.4309 89.0329 74.6312 89.2597C74.8316 89.4872 75.0904 89.6006 75.4068 89.6006ZM83.6363 86.4829V87.7104C83.4828 87.5395 83.3296 87.4145 83.1771 87.3348C83.0247 87.255 82.8608 87.2148 82.6872 87.2148C82.3652 87.2148 82.1045 87.3252 81.9051 87.5451C81.7057 87.7651 81.6061 88.0523 81.6061 88.4067C81.6061 88.7372 81.7076 89.0109 81.9108 89.2279C82.1141 89.4459 82.3729 89.5545 82.6872 89.5545C82.8608 89.5545 83.0247 89.5152 83.1771 89.4354C83.3296 89.3567 83.4828 89.2308 83.6363 89.0589V90.2864C83.4589 90.3728 83.2815 90.4382 83.1061 90.4814C82.9298 90.5247 82.7525 90.5457 82.5722 90.5457C82.3479 90.5457 82.1409 90.5188 81.9511 90.466C81.7613 90.4122 81.5869 90.3306 81.4278 90.2221C81.1209 90.0155 80.8872 89.7562 80.7261 89.443C80.5651 89.129 80.4845 88.7765 80.4845 88.3846C80.4845 88.0695 80.5353 87.7834 80.6378 87.5249C80.7395 87.2667 80.8938 87.0332 81.0989 86.8229C81.2936 86.6221 81.5131 86.4723 81.7575 86.3724C82.0019 86.2735 82.2732 86.2236 82.5722 86.2236C82.7525 86.2236 82.9298 86.2446 83.1061 86.2879C83.2815 86.3312 83.4589 86.3964 83.6363 86.4829ZM84.8491 90.442V86.3215H85.9821V90.442H84.8491ZM88.6137 90.442L86.8891 86.3215H88.0797L88.9022 88.6267C88.9098 88.6507 88.9252 88.7092 88.9492 88.8024C88.9722 88.8956 89.0028 89.0205 89.0402 89.1781C89.0699 89.0522 89.0977 88.9388 89.1245 88.8379C89.1505 88.7361 89.1706 88.666 89.1829 88.6267L90.0006 86.3215H91.1912L89.4668 90.442H88.6137ZM92.105 90.442V86.3215H93.238V90.442H92.105ZM94.6914 90.442V86.3215H95.8129V89.4796H97.2047V90.442H94.6914Z" fill="#F58612"/>
</svg>
